<mxfile host="app.diagrams.net" agent="Mozilla/5.0 (Windows NT 10.0; Win64; x64) AppleWebKit/537.36 (KHTML, like Gecko) Chrome/131.0.0.0 Safari/537.36" version="24.7.6" pages="2">
  <diagram name="Page-1" id="TXvAHkWiTcRPqTyoN4Rq">
    <mxGraphModel dx="794" dy="412" grid="1" gridSize="10" guides="1" tooltips="1" connect="1" arrows="1" fold="1" page="1" pageScale="1" pageWidth="1100" pageHeight="850" math="0" shadow="0">
      <root>
        <mxCell id="0" />
        <mxCell id="1" parent="0" />
        <mxCell id="002xOpN2fBoIezOr-Scu-4" value="Orders" style="swimlane;whiteSpace=wrap;html=1;" vertex="1" parent="1">
          <mxGeometry x="30" y="40" width="100" height="275" as="geometry" />
        </mxCell>
        <mxCell id="002xOpN2fBoIezOr-Scu-5" value="order_id&lt;div&gt;&lt;br&gt;&lt;div&gt;customer_id&lt;/div&gt;&lt;div&gt;&lt;br&gt;&lt;/div&gt;&lt;div&gt;order_status&lt;/div&gt;&lt;div&gt;&lt;br&gt;&lt;/div&gt;&lt;div&gt;order date&amp;nbsp;&lt;/div&gt;&lt;div&gt;&lt;br&gt;&lt;/div&gt;&lt;div&gt;required date&lt;/div&gt;&lt;div&gt;&lt;br&gt;&lt;/div&gt;&lt;div&gt;shipped date&amp;nbsp;&lt;/div&gt;&lt;div&gt;&lt;br&gt;&lt;/div&gt;&lt;div&gt;store&lt;span style=&quot;background-color: initial;&quot;&gt;_id&lt;/span&gt;&lt;/div&gt;&lt;div&gt;&lt;br&gt;&lt;/div&gt;&lt;div&gt;staff_id&lt;/div&gt;&lt;/div&gt;" style="text;html=1;align=left;verticalAlign=middle;resizable=0;points=[];autosize=1;strokeColor=none;fillColor=none;" vertex="1" parent="002xOpN2fBoIezOr-Scu-4">
          <mxGeometry x="10" y="30" width="100" height="230" as="geometry" />
        </mxCell>
        <mxCell id="002xOpN2fBoIezOr-Scu-8" value="customer&amp;nbsp;" style="swimlane;whiteSpace=wrap;html=1;" vertex="1" parent="1">
          <mxGeometry x="160" y="40" width="110" height="300" as="geometry" />
        </mxCell>
        <mxCell id="002xOpN2fBoIezOr-Scu-9" value="customer_id&lt;div&gt;&lt;br&gt;&lt;/div&gt;&lt;div&gt;fname&lt;/div&gt;&lt;div&gt;&lt;br&gt;&lt;/div&gt;&lt;div&gt;lname&lt;/div&gt;&lt;div&gt;&lt;br&gt;&lt;/div&gt;&lt;div&gt;phone&lt;/div&gt;&lt;div&gt;&lt;br&gt;&lt;/div&gt;&lt;div&gt;email&lt;/div&gt;&lt;div&gt;&lt;br&gt;&lt;/div&gt;&lt;div&gt;street&lt;/div&gt;&lt;div&gt;&lt;br&gt;&lt;/div&gt;&lt;div&gt;city&lt;/div&gt;&lt;div&gt;&lt;br&gt;&lt;/div&gt;&lt;div&gt;state&lt;/div&gt;&lt;div&gt;&lt;br&gt;&lt;/div&gt;&lt;div&gt;zip code&lt;/div&gt;" style="text;html=1;align=center;verticalAlign=middle;resizable=0;points=[];autosize=1;strokeColor=none;fillColor=none;" vertex="1" parent="002xOpN2fBoIezOr-Scu-8">
          <mxGeometry x="20" y="27.5" width="90" height="260" as="geometry" />
        </mxCell>
        <mxCell id="002xOpN2fBoIezOr-Scu-10" value="products" style="swimlane;whiteSpace=wrap;html=1;" vertex="1" parent="1">
          <mxGeometry x="300" y="40" width="120" height="200" as="geometry" />
        </mxCell>
        <mxCell id="002xOpN2fBoIezOr-Scu-11" value="product id&lt;div&gt;&lt;br&gt;&lt;/div&gt;&lt;div&gt;product name&lt;/div&gt;&lt;div&gt;&lt;br&gt;&lt;/div&gt;&lt;div&gt;brand id&lt;/div&gt;&lt;div&gt;&lt;br&gt;&lt;/div&gt;&lt;div&gt;category id&lt;/div&gt;&lt;div&gt;&lt;br&gt;&lt;/div&gt;&lt;div&gt;model year&lt;/div&gt;&lt;div&gt;&lt;br&gt;&lt;/div&gt;&lt;div&gt;list price&lt;/div&gt;" style="text;html=1;align=center;verticalAlign=middle;resizable=0;points=[];autosize=1;strokeColor=none;fillColor=none;" vertex="1" parent="002xOpN2fBoIezOr-Scu-10">
          <mxGeometry x="10" y="25" width="100" height="170" as="geometry" />
        </mxCell>
        <mxCell id="002xOpN2fBoIezOr-Scu-14" value="brand" style="swimlane;whiteSpace=wrap;html=1;" vertex="1" parent="1">
          <mxGeometry x="310" y="250" width="100" height="100" as="geometry" />
        </mxCell>
        <mxCell id="002xOpN2fBoIezOr-Scu-15" value="brand id&lt;div&gt;&lt;br&gt;&lt;/div&gt;&lt;div&gt;brand name&lt;/div&gt;" style="text;html=1;align=center;verticalAlign=middle;resizable=0;points=[];autosize=1;strokeColor=none;fillColor=none;" vertex="1" parent="002xOpN2fBoIezOr-Scu-14">
          <mxGeometry x="10" y="30" width="90" height="60" as="geometry" />
        </mxCell>
        <mxCell id="002xOpN2fBoIezOr-Scu-17" value="&lt;b&gt;categories&lt;/b&gt;" style="swimlane;fontStyle=0;childLayout=stackLayout;horizontal=1;startSize=30;horizontalStack=0;resizeParent=1;resizeParentMax=0;resizeLast=0;collapsible=1;marginBottom=0;whiteSpace=wrap;html=1;" vertex="1" parent="1">
          <mxGeometry x="450" y="40" width="140" height="90" as="geometry" />
        </mxCell>
        <mxCell id="002xOpN2fBoIezOr-Scu-18" value="category id" style="text;strokeColor=none;fillColor=none;align=left;verticalAlign=middle;spacingLeft=4;spacingRight=4;overflow=hidden;points=[[0,0.5],[1,0.5]];portConstraint=eastwest;rotatable=0;whiteSpace=wrap;html=1;" vertex="1" parent="002xOpN2fBoIezOr-Scu-17">
          <mxGeometry y="30" width="140" height="30" as="geometry" />
        </mxCell>
        <mxCell id="002xOpN2fBoIezOr-Scu-19" value="category name" style="text;strokeColor=none;fillColor=none;align=left;verticalAlign=middle;spacingLeft=4;spacingRight=4;overflow=hidden;points=[[0,0.5],[1,0.5]];portConstraint=eastwest;rotatable=0;whiteSpace=wrap;html=1;" vertex="1" parent="002xOpN2fBoIezOr-Scu-17">
          <mxGeometry y="60" width="140" height="30" as="geometry" />
        </mxCell>
        <mxCell id="002xOpN2fBoIezOr-Scu-25" value="order items" style="swimlane;whiteSpace=wrap;html=1;" vertex="1" parent="1">
          <mxGeometry x="475" y="140" width="90" height="200" as="geometry" />
        </mxCell>
        <mxCell id="002xOpN2fBoIezOr-Scu-26" value="order id&lt;div&gt;&lt;br&gt;&lt;/div&gt;&lt;div&gt;item id&lt;/div&gt;&lt;div&gt;&lt;br&gt;&lt;/div&gt;&lt;div&gt;product id&lt;/div&gt;&lt;div&gt;&lt;br&gt;&lt;/div&gt;&lt;div&gt;qty&lt;/div&gt;&lt;div&gt;&lt;br&gt;&lt;/div&gt;&lt;div&gt;list price&lt;/div&gt;&lt;div&gt;&lt;br&gt;&lt;/div&gt;&lt;div&gt;discount&lt;/div&gt;" style="text;html=1;align=center;verticalAlign=middle;resizable=0;points=[];autosize=1;strokeColor=none;fillColor=none;" vertex="1" parent="002xOpN2fBoIezOr-Scu-25">
          <mxGeometry y="30" width="80" height="170" as="geometry" />
        </mxCell>
      </root>
    </mxGraphModel>
  </diagram>
  <diagram id="kC64iXJ_7XZIHfMx2X3a" name="Page-2">
    <mxGraphModel dx="794" dy="1262" grid="1" gridSize="10" guides="1" tooltips="1" connect="1" arrows="1" fold="1" page="1" pageScale="1" pageWidth="1100" pageHeight="850" math="0" shadow="0">
      <root>
        <mxCell id="0" />
        <mxCell id="1" parent="0" />
        <mxCell id="af3KcdiAGvqdY3tRtCQk-18" style="edgeStyle=orthogonalEdgeStyle;rounded=0;orthogonalLoop=1;jettySize=auto;html=1;exitX=1;exitY=0.25;exitDx=0;exitDy=0;entryX=0;entryY=0.75;entryDx=0;entryDy=0;" edge="1" parent="1" source="7sVESinFcUq8Xv6pre7r-5" target="af3KcdiAGvqdY3tRtCQk-16">
          <mxGeometry relative="1" as="geometry" />
        </mxCell>
        <mxCell id="7sVESinFcUq8Xv6pre7r-5" value="Order dim" style="swimlane;whiteSpace=wrap;html=1;" vertex="1" parent="1">
          <mxGeometry x="110" y="-20" width="110" height="220" as="geometry" />
        </mxCell>
        <mxCell id="7sVESinFcUq8Xv6pre7r-6" value="order id&lt;div&gt;&lt;br&gt;&lt;/div&gt;&lt;div&gt;order status&lt;/div&gt;&lt;div&gt;&lt;br&gt;&lt;/div&gt;&lt;div&gt;order status&lt;/div&gt;&lt;div&gt;&lt;br&gt;&lt;/div&gt;&lt;div&gt;required date&lt;/div&gt;&lt;div&gt;&lt;br&gt;&lt;/div&gt;&lt;div&gt;shipped date&amp;nbsp;&lt;/div&gt;" style="text;html=1;align=left;verticalAlign=middle;resizable=0;points=[];autosize=1;strokeColor=none;fillColor=none;" vertex="1" parent="7sVESinFcUq8Xv6pre7r-5">
          <mxGeometry x="5" y="40" width="100" height="140" as="geometry" />
        </mxCell>
        <mxCell id="af3KcdiAGvqdY3tRtCQk-19" style="edgeStyle=orthogonalEdgeStyle;rounded=0;orthogonalLoop=1;jettySize=auto;html=1;exitX=1;exitY=0.25;exitDx=0;exitDy=0;entryX=0;entryY=1;entryDx=0;entryDy=0;" edge="1" parent="1" source="s1TI6irC4CmejZL3rOMz-1" target="af3KcdiAGvqdY3tRtCQk-16">
          <mxGeometry relative="1" as="geometry" />
        </mxCell>
        <mxCell id="s1TI6irC4CmejZL3rOMz-1" value="customer dim" style="swimlane;whiteSpace=wrap;html=1;" vertex="1" parent="1">
          <mxGeometry x="140" y="220" width="110" height="300" as="geometry" />
        </mxCell>
        <mxCell id="s1TI6irC4CmejZL3rOMz-2" value="customer_id&lt;div&gt;&lt;br&gt;&lt;/div&gt;&lt;div&gt;fname&lt;/div&gt;&lt;div&gt;&lt;br&gt;&lt;/div&gt;&lt;div&gt;lname&lt;/div&gt;&lt;div&gt;&lt;br&gt;&lt;/div&gt;&lt;div&gt;phone&lt;/div&gt;&lt;div&gt;&lt;br&gt;&lt;/div&gt;&lt;div&gt;email&lt;/div&gt;&lt;div&gt;&lt;br&gt;&lt;/div&gt;&lt;div&gt;street&lt;/div&gt;&lt;div&gt;&lt;br&gt;&lt;/div&gt;&lt;div&gt;city&lt;/div&gt;&lt;div&gt;&lt;br&gt;&lt;/div&gt;&lt;div&gt;state&lt;/div&gt;&lt;div&gt;&lt;br&gt;&lt;/div&gt;&lt;div&gt;zip code&lt;/div&gt;" style="text;html=1;align=left;verticalAlign=middle;resizable=0;points=[];autosize=1;strokeColor=none;fillColor=none;" vertex="1" parent="s1TI6irC4CmejZL3rOMz-1">
          <mxGeometry x="5" y="30" width="90" height="260" as="geometry" />
        </mxCell>
        <mxCell id="af3KcdiAGvqdY3tRtCQk-21" style="edgeStyle=orthogonalEdgeStyle;rounded=0;orthogonalLoop=1;jettySize=auto;html=1;exitX=1;exitY=0.25;exitDx=0;exitDy=0;entryX=1;entryY=0.5;entryDx=0;entryDy=0;" edge="1" parent="1" source="af3KcdiAGvqdY3tRtCQk-2" target="af3KcdiAGvqdY3tRtCQk-16">
          <mxGeometry relative="1" as="geometry" />
        </mxCell>
        <mxCell id="af3KcdiAGvqdY3tRtCQk-2" value="product dim" style="swimlane;whiteSpace=wrap;html=1;" vertex="1" parent="1">
          <mxGeometry x="310" y="-40" width="120" height="170" as="geometry" />
        </mxCell>
        <mxCell id="af3KcdiAGvqdY3tRtCQk-3" value="product id&lt;div&gt;&lt;br&gt;&lt;/div&gt;&lt;div&gt;product name&lt;/div&gt;&lt;div&gt;&lt;br&gt;&lt;/div&gt;&lt;div&gt;brand id&lt;/div&gt;&lt;div&gt;&lt;br&gt;&lt;/div&gt;&lt;div&gt;category id&lt;/div&gt;&lt;div&gt;&lt;br&gt;&lt;/div&gt;&lt;div&gt;model yr&lt;/div&gt;" style="text;html=1;align=left;verticalAlign=middle;resizable=0;points=[];autosize=1;strokeColor=none;fillColor=none;" vertex="1" parent="af3KcdiAGvqdY3tRtCQk-2">
          <mxGeometry x="10" y="30" width="100" height="140" as="geometry" />
        </mxCell>
        <mxCell id="af3KcdiAGvqdY3tRtCQk-5" value="&lt;b&gt;brand sub dim&lt;/b&gt;" style="swimlane;fontStyle=0;childLayout=stackLayout;horizontal=1;startSize=30;horizontalStack=0;resizeParent=1;resizeParentMax=0;resizeLast=0;collapsible=1;marginBottom=0;whiteSpace=wrap;html=1;" vertex="1" parent="1">
          <mxGeometry x="560" y="-50" width="100" height="100" as="geometry" />
        </mxCell>
        <mxCell id="af3KcdiAGvqdY3tRtCQk-9" value="&lt;div style=&quot;forced-color-adjust: none; color: rgb(0, 0, 0); font-family: Helvetica; font-size: 12px; font-style: normal; font-variant-ligatures: normal; font-variant-caps: normal; font-weight: 400; letter-spacing: normal; orphans: 2; text-indent: 0px; text-transform: none; widows: 2; word-spacing: 0px; -webkit-text-stroke-width: 0px; white-space: nowrap; background-color: rgb(251, 251, 251); text-decoration-thickness: initial; text-decoration-style: initial; text-decoration-color: initial;&quot;&gt;brand id&lt;/div&gt;&lt;div style=&quot;forced-color-adjust: none; color: rgb(0, 0, 0); font-family: Helvetica; font-size: 12px; font-style: normal; font-variant-ligatures: normal; font-variant-caps: normal; font-weight: 400; letter-spacing: normal; orphans: 2; text-indent: 0px; text-transform: none; widows: 2; word-spacing: 0px; -webkit-text-stroke-width: 0px; white-space: nowrap; background-color: rgb(251, 251, 251); text-decoration-thickness: initial; text-decoration-style: initial; text-decoration-color: initial;&quot;&gt;&lt;br style=&quot;forced-color-adjust: none;&quot;&gt;&lt;/div&gt;&lt;div style=&quot;forced-color-adjust: none; color: rgb(0, 0, 0); font-family: Helvetica; font-size: 12px; font-style: normal; font-variant-ligatures: normal; font-variant-caps: normal; font-weight: 400; letter-spacing: normal; orphans: 2; text-indent: 0px; text-transform: none; widows: 2; word-spacing: 0px; -webkit-text-stroke-width: 0px; white-space: nowrap; background-color: rgb(251, 251, 251); text-decoration-thickness: initial; text-decoration-style: initial; text-decoration-color: initial;&quot;&gt;brand name&lt;/div&gt;" style="text;whiteSpace=wrap;html=1;align=left;" vertex="1" parent="af3KcdiAGvqdY3tRtCQk-5">
          <mxGeometry y="30" width="100" height="70" as="geometry" />
        </mxCell>
        <mxCell id="af3KcdiAGvqdY3tRtCQk-10" value="cat sub dim" style="swimlane;fontStyle=0;childLayout=stackLayout;horizontal=1;startSize=30;horizontalStack=0;resizeParent=1;resizeParentMax=0;resizeLast=0;collapsible=1;marginBottom=0;whiteSpace=wrap;html=1;" vertex="1" parent="1">
          <mxGeometry x="550" y="90" width="140" height="90" as="geometry" />
        </mxCell>
        <mxCell id="af3KcdiAGvqdY3tRtCQk-12" value="category id" style="text;strokeColor=none;fillColor=none;align=left;verticalAlign=middle;spacingLeft=4;spacingRight=4;overflow=hidden;points=[[0,0.5],[1,0.5]];portConstraint=eastwest;rotatable=0;whiteSpace=wrap;html=1;" vertex="1" parent="af3KcdiAGvqdY3tRtCQk-10">
          <mxGeometry y="30" width="140" height="30" as="geometry" />
        </mxCell>
        <mxCell id="af3KcdiAGvqdY3tRtCQk-13" value="category name" style="text;strokeColor=none;fillColor=none;align=left;verticalAlign=middle;spacingLeft=4;spacingRight=4;overflow=hidden;points=[[0,0.5],[1,0.5]];portConstraint=eastwest;rotatable=0;whiteSpace=wrap;html=1;" vertex="1" parent="af3KcdiAGvqdY3tRtCQk-10">
          <mxGeometry y="60" width="140" height="30" as="geometry" />
        </mxCell>
        <mxCell id="af3KcdiAGvqdY3tRtCQk-16" value="fact table" style="swimlane;whiteSpace=wrap;html=1;" vertex="1" parent="1">
          <mxGeometry x="320" y="170" width="140" height="200" as="geometry" />
        </mxCell>
        <mxCell id="af3KcdiAGvqdY3tRtCQk-17" value="list price&amp;nbsp;&lt;div&gt;&lt;br&gt;&lt;/div&gt;&lt;div&gt;discount&amp;nbsp;&lt;/div&gt;&lt;div&gt;&lt;br&gt;&lt;/div&gt;&lt;div&gt;qty&lt;/div&gt;&lt;div&gt;&lt;br&gt;&lt;/div&gt;&lt;div&gt;product id&lt;/div&gt;&lt;div&gt;&lt;br&gt;&lt;/div&gt;&lt;div&gt;order id&lt;/div&gt;&lt;div&gt;&lt;br&gt;&lt;/div&gt;&lt;div&gt;customer id&lt;/div&gt;" style="text;html=1;align=center;verticalAlign=middle;resizable=0;points=[];autosize=1;strokeColor=none;fillColor=none;" vertex="1" parent="af3KcdiAGvqdY3tRtCQk-16">
          <mxGeometry x="20" y="20" width="90" height="170" as="geometry" />
        </mxCell>
        <mxCell id="af3KcdiAGvqdY3tRtCQk-22" style="edgeStyle=orthogonalEdgeStyle;rounded=0;orthogonalLoop=1;jettySize=auto;html=1;exitX=0;exitY=0.25;exitDx=0;exitDy=0;entryX=1;entryY=0.5;entryDx=0;entryDy=0;" edge="1" parent="1" source="af3KcdiAGvqdY3tRtCQk-9" target="af3KcdiAGvqdY3tRtCQk-2">
          <mxGeometry relative="1" as="geometry" />
        </mxCell>
        <mxCell id="af3KcdiAGvqdY3tRtCQk-23" style="edgeStyle=orthogonalEdgeStyle;rounded=0;orthogonalLoop=1;jettySize=auto;html=1;exitX=0;exitY=0.5;exitDx=0;exitDy=0;entryX=1;entryY=0.75;entryDx=0;entryDy=0;" edge="1" parent="1" source="af3KcdiAGvqdY3tRtCQk-12" target="af3KcdiAGvqdY3tRtCQk-2">
          <mxGeometry relative="1" as="geometry" />
        </mxCell>
      </root>
    </mxGraphModel>
  </diagram>
</mxfile>
